<?xml version="1.0" encoding="UTF-8"?>
<svg id="uuid-e506349f-92bf-4dfd-8e40-5d5c8e934726" data-name="Ebene 1" xmlns="http://www.w3.org/2000/svg" viewBox="0 0 1881.2 976.45">
  <defs>
    <style>
      .uuid-1acd6506-ed63-4cce-b2a9-05ea85b581ad {
        fill: #05d18c;
      }

      .uuid-1acd6506-ed63-4cce-b2a9-05ea85b581ad, .uuid-c75eb5cc-461c-4f73-8de1-04dda9f49e9a, .uuid-bcd33c73-1460-4bf1-b82b-c9afd016e294 {
        stroke-width: 0px;
      }

      .uuid-c75eb5cc-461c-4f73-8de1-04dda9f49e9a {
        fill: #000;
      }

      .uuid-bcd33c73-1460-4bf1-b82b-c9afd016e294 {
        fill: #fff;
      }
    </style>
  </defs>
  <g>
    <path class="uuid-c75eb5cc-461c-4f73-8de1-04dda9f49e9a" d="M740.58,170.33h970.89v170.13h-988.15v-152.87c0-9.53,7.73-17.26,17.26-17.26Z"/>
    <g>
      <g>
        <polygon class="uuid-bcd33c73-1460-4bf1-b82b-c9afd016e294" points="808.78 279.96 847 228.77 847 215.71 785.43 215.71 785.43 233.9 820.19 233.9 782.4 284.16 782.4 297.33 848.28 297.33 848.28 279.96 808.78 279.96"/>
        <path class="uuid-bcd33c73-1460-4bf1-b82b-c9afd016e294" d="M902.03,298.03c-6.76,0-12.79-1.38-18.07-4.14-5.29-2.76-9.43-6.55-12.42-11.37-2.99-4.82-4.49-10.34-4.49-16.56v-50.26h20.06v49.21c0,2.96.66,5.62,1.98,7.99,1.32,2.37,3.11,4.24,5.36,5.6,2.25,1.36,4.78,2.04,7.58,2.04,2.95,0,5.58-.68,7.87-2.04,2.29-1.36,4.14-3.23,5.54-5.6,1.4-2.37,2.1-5.03,2.1-7.99v-49.21h19.36v50.26c0,6.22-1.5,11.74-4.49,16.56-2.99,4.82-7.13,8.61-12.42,11.37-5.29,2.76-11.27,4.14-17.96,4.14Z"/>
        <path class="uuid-bcd33c73-1460-4bf1-b82b-c9afd016e294" d="M985.06,298.5c-5.36,0-10.2-.64-14.52-1.92-4.31-1.28-8.14-3.15-11.49-5.6-3.34-2.45-6.34-5.34-8.98-8.69l12.01-13.64c3.89,5.21,7.79,8.71,11.72,10.49,3.92,1.79,7.99,2.68,12.19,2.68,2.1,0,4-.27,5.71-.82,1.71-.54,3.03-1.34,3.96-2.39.93-1.05,1.4-2.35,1.4-3.91,0-1.17-.29-2.22-.87-3.15-.58-.93-1.38-1.75-2.39-2.45-1.01-.7-2.22-1.34-3.61-1.92-1.4-.58-2.88-1.09-4.43-1.52-1.56-.43-3.15-.8-4.78-1.11-4.51-1.01-8.44-2.25-11.78-3.73-3.34-1.48-6.12-3.28-8.34-5.42-2.22-2.14-3.87-4.59-4.96-7.35-1.09-2.76-1.63-5.85-1.63-9.27,0-3.65.83-7.01,2.51-10.09,1.67-3.07,3.92-5.71,6.76-7.93,2.84-2.22,6.12-3.92,9.85-5.13,3.73-1.2,7.62-1.81,11.66-1.81,5.36,0,9.97.56,13.82,1.69,3.85,1.13,7.15,2.74,9.91,4.84,2.76,2.1,5.11,4.63,7.06,7.58l-12.24,11.78c-1.63-2.02-3.4-3.69-5.31-5.01-1.91-1.32-3.93-2.33-6.06-3.03-2.14-.7-4.33-1.05-6.59-1.05s-4.33.29-6.01.87c-1.67.58-2.97,1.4-3.91,2.45-.93,1.05-1.4,2.31-1.4,3.79,0,1.32.39,2.45,1.17,3.38.78.93,1.83,1.77,3.15,2.51,1.32.74,2.84,1.36,4.55,1.87,1.71.51,3.5.91,5.36,1.22,4.27.86,8.14,1.98,11.6,3.38,3.46,1.4,6.45,3.11,8.98,5.13,2.53,2.02,4.47,4.41,5.83,7.17,1.36,2.76,2.04,5.97,2.04,9.62,0,5.68-1.38,10.48-4.14,14.4-2.76,3.93-6.53,6.92-11.31,8.98-4.78,2.06-10.28,3.09-16.5,3.09Z"/>
        <polygon class="uuid-bcd33c73-1460-4bf1-b82b-c9afd016e294" points="1053.51 280.42 1053.51 263.87 1085.92 263.87 1085.92 247.77 1053.51 247.77 1053.51 232.62 1091.17 232.62 1091.17 215.71 1034.27 215.71 1034.27 297.33 1092.34 297.33 1092.34 280.42 1053.51 280.42"/>
      </g>
      <g>
        <path class="uuid-bcd33c73-1460-4bf1-b82b-c9afd016e294" d="M1178.51,298.5c-5.36,0-10.2-.64-14.52-1.92-4.31-1.28-8.14-3.15-11.49-5.6-3.34-2.45-6.34-5.34-8.98-8.69l12.01-13.64c3.89,5.21,7.79,8.71,11.72,10.49,3.92,1.79,7.99,2.68,12.19,2.68,2.1,0,4-.27,5.71-.82,1.71-.54,3.03-1.34,3.96-2.39.93-1.05,1.4-2.35,1.4-3.91,0-1.17-.29-2.22-.87-3.15-.58-.93-1.38-1.75-2.39-2.45-1.01-.7-2.22-1.34-3.61-1.92-1.4-.58-2.88-1.09-4.43-1.52-1.56-.43-3.15-.8-4.78-1.11-4.51-1.01-8.44-2.25-11.78-3.73-3.34-1.48-6.12-3.28-8.34-5.42-2.22-2.14-3.87-4.59-4.96-7.35-1.09-2.76-1.63-5.85-1.63-9.27,0-3.65.83-7.01,2.51-10.09,1.67-3.07,3.92-5.71,6.76-7.93,2.84-2.22,6.12-3.92,9.85-5.13,3.73-1.2,7.62-1.81,11.66-1.81,5.36,0,9.97.56,13.82,1.69,3.85,1.13,7.15,2.74,9.91,4.84,2.76,2.1,5.11,4.63,7.06,7.58l-12.24,11.78c-1.63-2.02-3.4-3.69-5.31-5.01-1.91-1.32-3.93-2.33-6.06-3.03-2.14-.7-4.33-1.05-6.59-1.05s-4.33.29-6.01.87c-1.67.58-2.97,1.4-3.91,2.45-.93,1.05-1.4,2.31-1.4,3.79,0,1.32.39,2.45,1.17,3.38.78.93,1.83,1.77,3.15,2.51,1.32.74,2.84,1.36,4.55,1.87,1.71.51,3.5.91,5.36,1.22,4.27.86,8.14,1.98,11.6,3.38,3.46,1.4,6.45,3.11,8.98,5.13,2.53,2.02,4.47,4.41,5.83,7.17,1.36,2.76,2.04,5.97,2.04,9.62,0,5.68-1.38,10.48-4.14,14.4-2.76,3.93-6.53,6.92-11.31,8.98-4.78,2.06-10.28,3.09-16.5,3.09Z"/>
        <path class="uuid-bcd33c73-1460-4bf1-b82b-c9afd016e294" d="M1264.8,298.5c-6.14,0-11.8-1.03-16.97-3.09-5.17-2.06-9.66-4.97-13.47-8.75-3.81-3.77-6.74-8.24-8.8-13.41-2.06-5.17-3.09-10.86-3.09-17.08s1.09-11.66,3.26-16.79c2.18-5.13,5.19-9.58,9.04-13.35,3.85-3.77,8.4-6.7,13.64-8.8,5.25-2.1,10.98-3.15,17.2-3.15,3.89,0,7.7.51,11.43,1.52,3.73,1.01,7.21,2.51,10.44,4.49,3.23,1.98,6.01,4.33,8.34,7.05l-12.13,13.88c-1.63-1.71-3.36-3.21-5.19-4.49-1.83-1.28-3.83-2.27-6.01-2.97-2.18-.7-4.51-1.05-7-1.05-3.11,0-6.05.56-8.8,1.69-2.76,1.13-5.17,2.72-7.23,4.78-2.06,2.06-3.67,4.57-4.84,7.52-1.17,2.96-1.75,6.26-1.75,9.91s.58,6.82,1.75,9.74c1.17,2.92,2.8,5.42,4.9,7.52,2.1,2.1,4.64,3.69,7.64,4.78,2.99,1.09,6.31,1.63,9.97,1.63,2.49,0,4.86-.35,7.11-1.05,2.25-.7,4.33-1.65,6.24-2.86,1.9-1.2,3.59-2.58,5.07-4.14l9.56,15.16c-1.94,2.18-4.53,4.12-7.75,5.83-3.23,1.71-6.8,3.05-10.73,4.02-3.93.97-7.87,1.46-11.84,1.46Z"/>
        <polygon class="uuid-bcd33c73-1460-4bf1-b82b-c9afd016e294" points="1361.58 215.71 1361.58 247.77 1330.79 247.77 1330.79 215.71 1310.97 215.71 1310.97 297.33 1330.79 297.33 1330.79 265.5 1361.58 265.5 1361.58 297.33 1381.4 297.33 1381.4 215.71 1361.58 215.71"/>
        <path class="uuid-bcd33c73-1460-4bf1-b82b-c9afd016e294" d="M1441.34,298.5c-6.22,0-11.89-1.05-17.02-3.15-5.13-2.1-9.6-5.05-13.41-8.86-3.81-3.81-6.76-8.28-8.86-13.41-2.1-5.13-3.15-10.77-3.15-16.91s1.05-11.78,3.15-16.91c2.1-5.13,5.05-9.6,8.86-13.41,3.81-3.81,8.28-6.76,13.41-8.86,5.13-2.1,10.77-3.15,16.91-3.15s11.78,1.05,16.91,3.15c5.13,2.1,9.6,5.05,13.41,8.86,3.81,3.81,6.74,8.28,8.8,13.41,2.06,5.13,3.09,10.77,3.09,16.91s-1.03,11.68-3.09,16.85c-2.06,5.17-5,9.66-8.8,13.47-3.81,3.81-8.28,6.76-13.41,8.86-5.13,2.1-10.73,3.15-16.79,3.15ZM1441.22,279.84c3.19,0,6.12-.58,8.8-1.75,2.68-1.17,5.01-2.82,7-4.96,1.98-2.14,3.52-4.64,4.61-7.52,1.09-2.88,1.63-6.02,1.63-9.45s-.54-6.57-1.63-9.45c-1.09-2.88-2.62-5.38-4.61-7.52-1.98-2.14-4.31-3.79-7-4.96-2.68-1.17-5.62-1.75-8.8-1.75s-6.12.58-8.8,1.75c-2.68,1.17-5.03,2.82-7.05,4.96-2.02,2.14-3.56,4.65-4.61,7.52-1.05,2.88-1.57,6.03-1.57,9.45s.52,6.59,1.57,9.5c1.05,2.92,2.58,5.42,4.61,7.52,2.02,2.1,4.37,3.73,7.05,4.9,2.68,1.17,5.62,1.75,8.8,1.75Z"/>
        <path class="uuid-bcd33c73-1460-4bf1-b82b-c9afd016e294" d="M1538.35,298.5c-6.22,0-11.89-1.05-17.02-3.15-5.13-2.1-9.6-5.05-13.41-8.86-3.81-3.81-6.76-8.28-8.86-13.41-2.1-5.13-3.15-10.77-3.15-16.91s1.05-11.78,3.15-16.91c2.1-5.13,5.05-9.6,8.86-13.41,3.81-3.81,8.28-6.76,13.41-8.86,5.13-2.1,10.77-3.15,16.91-3.15s11.78,1.05,16.91,3.15c5.13,2.1,9.6,5.05,13.41,8.86,3.81,3.81,6.74,8.28,8.8,13.41,2.06,5.13,3.09,10.77,3.09,16.91s-1.03,11.68-3.09,16.85c-2.06,5.17-5,9.66-8.8,13.47-3.81,3.81-8.28,6.76-13.41,8.86-5.13,2.1-10.73,3.15-16.79,3.15ZM1538.24,279.84c3.19,0,6.12-.58,8.8-1.75,2.68-1.17,5.01-2.82,7-4.96,1.98-2.14,3.52-4.64,4.61-7.52,1.09-2.88,1.63-6.02,1.63-9.45s-.54-6.57-1.63-9.45c-1.09-2.88-2.62-5.38-4.61-7.52-1.98-2.14-4.31-3.79-7-4.96-2.68-1.17-5.62-1.75-8.8-1.75s-6.12.58-8.8,1.75c-2.68,1.17-5.03,2.82-7.05,4.96-2.02,2.14-3.56,4.65-4.61,7.52-1.05,2.88-1.57,6.03-1.57,9.45s.52,6.59,1.57,9.5c1.05,2.92,2.58,5.42,4.61,7.52,2.02,2.1,4.37,3.73,7.05,4.9,2.68,1.17,5.62,1.75,8.8,1.75Z"/>
        <path class="uuid-bcd33c73-1460-4bf1-b82b-c9afd016e294" d="M1598.17,297.33v-81.63h19.82v64.13h36.38v17.49h-56.2Z"/>
      </g>
    </g>
  </g>
  <g>
    <path class="uuid-1acd6506-ed63-4cce-b2a9-05ea85b581ad" d="M261.68,417.9c-7.55,0-13.68,6.12-13.68,13.68v31.67c0,8.55-3.39,16.74-9.44,22.78-6.04,6.04-14.24,9.44-22.78,9.44h-31.67c-7.55,0-13.68,6.12-13.68,13.68v296.6h310.28v-77.57h-232.71v-77.57h155.14v-77.57h-155.14v-45.35c0-8.54,3.39-16.74,9.44-22.78,6.04-6.04,14.24-9.44,22.78-9.44h200.49v-77.57h-219.03Z"/>
    <path class="uuid-1acd6506-ed63-4cce-b2a9-05ea85b581ad" d="M1017.22,417.9v77.57h232.71v45.35c0,8.55-3.4,16.74-9.44,22.78-6.04,6.04-14.24,9.44-22.78,9.44h-109.24c-7.55,0-13.68,6.12-13.68,13.68v31.67c0,8.55-3.4,16.74-9.44,22.78-6.04,6.04-14.24,9.44-22.78,9.44h-31.67c-7.55,0-13.68,6.12-13.68,13.68v141.46h310.28v-77.57h-232.71v-45.35c0-8.54,3.39-16.74,9.44-22.78,6.04-6.04,14.24-9.44,22.78-9.44h109.25c7.55,0,13.68-6.12,13.68-13.68v-31.67c0-8.54,3.39-16.74,9.44-22.78,6.04-6.04,14.24-9.44,22.78-9.44h31.67c7.55,0,13.68-6.12,13.68-13.68v-141.46h-310.28Z"/>
    <polygon class="uuid-1acd6506-ed63-4cce-b2a9-05ea85b581ad" points="635.85 728.18 635.85 417.9 558.28 417.9 558.28 805.75 791 805.75 791 728.18 635.85 728.18"/>
    <path class="uuid-1acd6506-ed63-4cce-b2a9-05ea85b581ad" d="M1492.65,417.9c-7.55,0-13.68,6.12-13.68,13.68v31.67c.67,11.93-9.44,22.78-9.44,22.78-6.04,6.04-14.24,9.44-22.78,9.44h-31.67c-7.55,0-13.68,6.12-13.68,13.68v296.6h77.57v-77.57h155.14v77.57h77.57v-387.85h-219.03ZM1634.12,650.61h-155.14v-122.92c0-8.54,3.39-16.74,9.44-22.78,6.04-6.04,14.24-9.44,22.78-9.44h122.92v155.14Z"/>
    <rect class="uuid-1acd6506-ed63-4cce-b2a9-05ea85b581ad" x="861.21" y="417.9" width="77.57" height="387.85"/>
  </g>
</svg>