<svg version="1.1" id="svg2" xml:space="preserve" width="1793.8588" height="1741.9991" viewBox="0 0 1793.8587 1741.9991" sodipodi:docname="logo_new.svg" inkscape:version="1.1.2 (0a00cf5339, 2022-02-04)" xmlns:inkscape="http://www.inkscape.org/namespaces/inkscape" xmlns:sodipodi="http://sodipodi.sourceforge.net/DTD/sodipodi-0.dtd" xmlns:xlink="http://www.w3.org/1999/xlink" xmlns="http://www.w3.org/2000/svg" xmlns:svg="http://www.w3.org/2000/svg"><defs id="defs6"><rect x="2502.9238" y="372.59821" width="323.76776" height="65.655998" id="rect14789"></rect><rect x="587.35376" y="304.87714" width="1910.3223" height="409.43643" id="rect3861"></rect><clipPath clipPathUnits="userSpaceOnUse" id="clipPath18"><path d="M 0,0 H 2000 V 2000 H 0 Z" id="path16" data-index="0"></path></clipPath></defs><sodipodi:namedview id="namedview4" pagecolor="#505050" bordercolor="#eeeeee" borderopacity="1" inkscape:pageshadow="0" inkscape:pageopacity="0" inkscape:pagecheckerboard="0" showgrid="false" inkscape:snap-object-midpoints="false" inkscape:snap-center="true" inkscape:snap-page="true" inkscape:zoom="0.28001428" inkscape:cx="1519.5654" inkscape:cy="689.25057" inkscape:window-width="1366" inkscape:window-height="710" inkscape:window-x="0" inkscape:window-y="0" inkscape:window-maximized="1" inkscape:current-layer="g8"></sodipodi:namedview><g id="g8" inkscape:groupmode="layer" inkscape:label="logo" transform="matrix(1.3333333,0,0,-1.3333333,-446.28204,2210.6723)"><g id="g12" transform="translate(14.16452,-21.776334)"><g id="g14" clip-path="url(#clipPath18)"><g id="g20" transform="translate(999.6206,1492.5952)"><path d="m 0,0 c 272.225,0 493.7,-221.475 493.7,-493.7 0,-108.646 -35.357,-209.149 -95.061,-290.774 1.962,-1.801 3.827,-3.688 5.569,-5.673 61.113,83.106 97.321,185.611 97.321,296.447 C 501.529,-217.155 276.543,7.829 0,7.829 c -276.544,0 -501.528,-224.984 -501.528,-501.529 0,-115.265 39.186,-221.492 104.8,-306.285 2.261,1.324 4.633,2.529 7.109,3.619 -65.138,83.659 -104.08,188.67 -104.08,302.666 C -493.699,-221.475 -272.225,0 0,0" style="fill: rgb(0, 141, 204); fill-opacity: 1; fill-rule: nonzero; opacity: 1;" id="path22" data-index="1"></path></g><g id="g24" transform="translate(1531.9912,998.8955)"><path d="m 0,0 c 0,-92.682 -23.912,-179.835 -65.759,-255.791 -3.496,-12.828 -7.033,-31.23 -6.476,-53.453 0.579,-23.108 5.373,-41.932 9.718,-54.789 32.02,41.314 81.198,115.55 107.38,219.786 11.601,46.181 17.769,94.496 17.769,144.247 0,328.083 -266.92,595.002 -595.003,595.002 -328.083,0 -595.002,-266.919 -595.002,-595.002 0,-146.527 53.402,-280.702 141.578,-384.476 4.743,8.921 12.951,27.235 13.228,51.745 0.294,25.95 -8.454,45.322 -13.228,54.302 -20.007,32.4 -45.889,82.078 -62.483,147.011 -10.744,42.04 -16.463,86.069 -16.463,131.418 0,293.548 238.822,532.371 532.37,532.371 C -238.822,532.371 0,293.548 0,0" style="fill: rgb(29, 100, 153); fill-opacity: 1; fill-rule: nonzero; opacity: 1;" id="path26" data-index="2"></path></g><g id="g28" transform="translate(647.126,685.1562)"><path d="m 0,0 14.534,-15.926 -85.775,-78.252 -14.534,15.926 z" style="fill:#1d6499;fill-opacity:1;fill-rule:nonzero;stroke:none" id="path30" data-index="3"></path></g><g id="g32" transform="translate(710.6294,624.6338)"><path d="m 0,0 17.225,-12.974 -69.849,-92.74 -17.225,12.967 z" style="fill:#1d6499;fill-opacity:1;fill-rule:nonzero;stroke:none" id="path34" data-index="4"></path></g><g id="g36" transform="translate(758.9258,466.4033)"><path d="m 0,0 c -6.767,8.372 -10.895,17.769 -12.386,28.196 -1.49,10.429 -0.053,20.904 4.304,31.431 4.358,10.52 10.773,18.931 19.244,25.238 8.471,6.307 18.067,10.031 28.763,11.162 10.703,1.132 21.468,-0.535 32.302,-5.023 8.784,-3.639 16.17,-8.486 22.156,-14.557 5.987,-6.07 10.276,-13.051 12.867,-20.941 L 89.368,48.725 C 85.071,60.315 77.257,68.458 65.912,73.152 58.557,76.202 51.301,77.318 44.145,76.509 36.989,75.705 30.589,73.113 24.955,68.748 19.312,64.375 15,58.563 11.996,51.315 8.991,44.061 7.936,36.896 8.846,29.817 9.74,22.745 12.439,16.392 16.935,10.765 21.422,5.138 27.348,0.803 34.703,-2.248 46.041,-6.942 57.349,-6.659 68.625,-1.392 l 7.799,-17.586 C 69.008,-22.73 61.011,-24.626 52.44,-24.664 43.862,-24.71 35.185,-22.906 26.4,-19.274 15.566,-14.786 6.766,-8.364 0,0" style="fill:#1d6499;fill-opacity:1;fill-rule:nonzero;stroke:none" id="path38" data-index="5"></path></g><g id="g40" transform="translate(933.5181,417.373)"><path d="m 0,0 c -9.029,5.855 -15.872,13.51 -20.513,22.959 -4.656,9.458 -6.537,19.854 -5.658,31.217 0.872,11.353 4.366,21.339 10.467,29.963 6.101,8.624 14.06,15.137 23.885,19.534 9.824,4.395 20.573,6.146 32.263,5.244 9.481,-0.733 18.006,-3.058 25.575,-6.973 C 73.595,98.038 79.833,92.73 84.75,86.026 L 69.857,74.039 c -7.684,9.687 -17.646,15 -29.879,15.948 C 32.042,90.599 24.794,89.414 18.242,86.425 11.69,83.435 6.407,78.993 2.408,73.091 -1.598,67.188 -3.907,60.33 -4.511,52.501 -5.115,44.672 -3.892,37.531 -0.841,31.086 2.209,24.642 6.743,19.442 12.76,15.48 18.777,11.521 25.75,9.235 33.686,8.624 45.926,7.676 56.584,11.453 65.674,19.962 L 78.542,5.657 C 72.655,-0.207 65.644,-4.488 57.501,-7.187 49.367,-9.886 40.551,-10.872 31.071,-10.138 19.389,-9.236 9.029,-5.856 0,0" style="fill:#1d6499;fill-opacity:1;fill-rule:nonzero;stroke:none" id="path42" data-index="6"></path></g><g id="g44" transform="translate(1104.708,418.4658)"><path d="m 0,0 c -8.701,0.635 -15.888,2.47 -21.562,5.497 l 3.586,17.99 c 5.468,-2.622 11.836,-4.327 19.1,-5.122 7.263,-0.803 14.297,-0.428 21.094,1.109 8.41,1.895 14.388,4.663 17.928,8.295 3.547,3.639 4.817,7.669 3.815,12.087 -0.726,3.234 -2.492,5.643 -5.282,7.225 -2.799,1.575 -6.11,2.554 -9.932,2.943 -3.831,0.383 -8.983,0.627 -15.475,0.75 -9.098,0.099 -16.537,0.574 -22.339,1.414 -5.804,0.849 -11.118,3.02 -15.926,6.522 -4.817,3.502 -8.067,8.976 -9.748,16.423 -1.414,6.254 -1.002,12.324 1.238,18.219 2.24,5.886 6.445,11.116 12.615,15.68 6.162,4.572 14.205,7.975 24.129,10.215 6.905,1.56 13.893,2.232 20.972,2.019 7.072,-0.215 13.41,-1.392 18.991,-3.533 L 40.261,99.896 c -5.619,1.79 -11.292,2.829 -17.028,3.126 -5.733,0.291 -11.138,-0.136 -16.207,-1.284 -8.303,-1.873 -14.16,-4.671 -17.569,-8.386 -3.41,-3.724 -4.596,-7.898 -3.548,-12.539 0.735,-3.234 2.485,-5.62 5.268,-7.141 2.783,-1.522 6.086,-2.477 9.916,-2.859 3.831,-0.382 8.983,-0.635 15.474,-0.757 8.854,-0.038 16.209,-0.504 22.08,-1.384 5.865,-0.887 11.202,-3.058 16.002,-6.506 4.81,-3.448 8.037,-8.839 9.695,-16.171 C 65.759,39.734 65.338,33.687 63.083,27.853 60.835,22.012 56.6,16.805 50.376,12.226 44.152,7.653 36.087,4.236 26.163,1.996 17.424,0.022 8.7,-0.642 0,0" style="fill:#1d6499;fill-opacity:1;fill-rule:nonzero;stroke:none" id="path46" data-index="7"></path></g><g id="g48" transform="translate(1263.3975,471.251)"><path d="m 0,0 c -8.524,-1.866 -15.935,-2.164 -22.233,-0.872 l -1.69,18.258 c 5.986,-0.956 12.577,-0.773 19.764,0.535 7.194,1.307 13.823,3.662 19.901,7.071 7.524,4.221 12.462,8.579 14.823,13.074 2.357,4.489 2.433,8.716 0.215,12.669 -1.628,2.898 -3.998,4.702 -7.133,5.42 -3.126,0.711 -6.575,0.711 -10.351,-0.014 -3.777,-0.727 -8.793,-1.958 -15.055,-3.686 -8.738,-2.5 -16.01,-4.167 -21.812,-5.016 -5.803,-0.848 -11.514,-0.275 -17.126,1.713 -5.613,1.981 -10.29,6.3 -14.022,12.959 -3.135,5.589 -4.472,11.53 -4.007,17.815 0.475,6.284 3.005,12.492 7.616,18.632 4.61,6.131 11.353,11.689 20.222,16.667 6.17,3.463 12.684,6.101 19.527,7.913 6.842,1.811 13.25,2.484 19.213,2.026 l 2.263,-17.936 c -5.894,0.114 -11.636,-0.505 -17.21,-1.859 -5.581,-1.352 -10.642,-3.303 -15.169,-5.848 -7.431,-4.167 -12.248,-8.517 -14.458,-13.051 -2.209,-4.533 -2.148,-8.876 0.176,-13.028 1.629,-2.89 3.983,-4.671 7.088,-5.338 3.104,-0.671 6.545,-0.641 10.321,0.078 3.778,0.726 8.792,1.958 15.046,3.693 8.494,2.484 15.682,4.136 21.561,4.962 5.872,0.825 11.606,0.267 17.195,-1.667 C 40.253,73.228 44.887,68.984 48.563,62.425 51.698,56.828 53.021,50.919 52.524,44.68 52.035,38.441 49.459,32.24 44.803,26.078 40.139,19.924 33.38,14.351 24.504,9.373 16.697,4.992 8.524,1.865 0,0" style="fill:#1d6499;fill-opacity:1;fill-rule:nonzero;stroke:none" id="path50" data-index="8"></path></g><g id="g52" transform="translate(1400.458,566.8799)"><path d="M 0,0 C -7.653,-4.197 -14.68,-6.567 -21.086,-7.11 L -27.86,9.932 c 6.009,0.772 12.286,2.805 18.815,6.086 6.522,3.288 12.226,7.423 17.088,12.408 6.024,6.17 9.542,11.744 10.535,16.72 0.994,4.978 -0.13,9.045 -3.371,12.218 -2.37,2.317 -5.161,3.38 -8.364,3.181 -3.203,-0.191 -6.514,-1.17 -9.94,-2.929 -3.417,-1.765 -7.882,-4.357 -13.394,-7.79 -7.684,-4.862 -14.183,-8.517 -19.512,-10.964 -5.328,-2.446 -10.963,-3.508 -16.911,-3.188 -5.948,0.313 -11.652,3.142 -17.111,8.472 -4.587,4.48 -7.546,9.801 -8.869,15.963 -1.323,6.162 -0.642,12.837 2.049,20.024 2.692,7.186 7.584,14.419 14.695,21.697 4.947,5.062 10.444,9.428 16.499,13.097 6.055,3.67 12.009,6.124 17.86,7.371 l 7.231,-16.569 c -5.687,-1.551 -11.016,-3.768 -15.986,-6.643 -4.969,-2.875 -9.273,-6.17 -12.905,-9.886 -5.948,-6.094 -9.343,-11.629 -10.176,-16.606 -0.841,-4.977 0.436,-9.121 3.838,-12.447 2.378,-2.316 5.145,-3.356 8.31,-3.119 3.158,0.23 6.454,1.223 9.871,2.99 3.425,1.757 7.89,4.349 13.395,7.783 7.454,4.778 13.876,8.394 19.281,10.841 5.406,2.454 11.064,3.532 16.974,3.255 5.902,-0.281 11.552,-3.048 16.927,-8.301 4.587,-4.481 7.53,-9.786 8.815,-15.903 C 39.068,51.569 38.342,44.895 35.612,37.67 32.883,30.444 27.967,23.188 20.864,15.91 14.603,9.504 7.646,4.197 0,0" style="fill: rgb(29, 100, 153); fill-opacity: 1; fill-rule: nonzero; opacity: 1;" id="path54" data-index="9"></path></g><g id="g56" transform="translate(1037.7822,704.6318)"><path d="m 0,0 42.286,-33.413 c 0.724,2.348 2.002,4.461 3.76,6.177 L 6.536,3.983 C 4.896,2.137 2.704,0.748 0,0" style="fill:#008dcc;fill-opacity:1;fill-rule:nonzero;stroke:none" id="path58" data-index="10"></path></g><g id="g60" transform="translate(1255.0303,745.2051)"><path d="m 0,0 c -2.9,0 -5.344,0.705 -7.426,1.816 l -83.762,-53.993 -56.019,-20.344 c 1.002,-2.208 1.567,-4.62 1.593,-7.056 L -88.355,-58.784 3.547,0.357 C 2.445,0.126 1.265,0 0,0" style="fill:#008dcc;fill-opacity:1;fill-rule:nonzero;stroke:none" id="path62" data-index="11"></path></g><g id="g64" transform="translate(1037.4473,1014.3989)"><path d="m 0,0 c -2.729,0 -5.063,0.612 -7.068,1.606 l -0.118,-281.069 c 0.827,0.122 1.647,0.254 2.557,0.254 1.697,0 3.203,-0.291 4.621,-0.699 L 0.109,0.01 C 0.07,0.01 0.039,0 0,0" style="fill:#008dcc;fill-opacity:1;fill-rule:nonzero;stroke:none" id="path66" data-index="12"></path></g><g id="g68" transform="translate(1030.4189,1114.4663)"><path d="m 0,0 -0.028,-70.191 c 1.857,0.838 4.024,1.322 6.511,1.322 0.238,0 0.436,-0.058 0.666,-0.066 L 7.18,2.65 C 5.281,1.212 2.853,0.307 0,0" style="fill:#008dcc;fill-opacity:1;fill-rule:nonzero;stroke:none" id="path70" data-index="13"></path></g><g id="g72" transform="translate(1032.9736,1275.7197)"><path d="m 0,0 c -0.883,0.152 -1.696,0.397 -2.485,0.677 h -0.002 l -0.054,-131.161 c 2.862,-0.401 5.267,-1.449 7.177,-2.994 L 4.69,-0.127 C 4.123,-0.182 3.596,-0.296 2.989,-0.296 1.927,-0.296 0.938,-0.183 0,0" style="fill:#008dcc;fill-opacity:1;fill-rule:nonzero;stroke:none" id="path74" data-index="14"></path></g><g id="g76" transform="translate(1054.2588,1377.0391)"><path d="M 0,0 C -0.798,0.122 -1.62,0.208 -2.343,0.435 -2.396,0.451 -2.447,0.469 -2.5,0.485 -3.615,0.849 -4.64,1.315 -5.572,1.894 H -5.573 L -23.747,-41.22 -23.76,-71.221 h 0.001 c 0.677,0.215 1.367,0.403 2.115,0.525 0.882,0.167 1.803,0.279 2.803,0.279 0.802,0 1.521,-0.128 2.26,-0.224 l 0.012,27.97 17.884,42.426 C 0.911,-0.215 0.574,-0.089 0.187,-0.035 0.125,-0.022 0.062,-0.013 0,0" style="fill:#008dcc;fill-opacity:1;fill-rule:nonzero;stroke:none" id="path78" data-index="15"></path></g><g id="g80" transform="translate(1121.5146,1373.958)"><path d="m 0,0 -49.084,20.69 c 0.383,-2.539 0.222,-5.149 -0.484,-7.584 L -1.451,-7.179 37.897,-7.194 c 0.028,1.188 0.187,2.357 0.45,3.506 0.026,0.121 0.052,0.238 0.083,0.358 0.289,1.15 0.673,2.262 1.2,3.31 z" style="fill:#008dcc;fill-opacity:1;fill-rule:nonzero;stroke:none" id="path82" data-index="16"></path></g><g id="g84" transform="translate(1187.4258,1357.5127)"><path d="m 0,0 c -0.346,-0.617 -0.752,-1.194 -1.189,-1.748 -0.268,-0.345 -0.56,-0.665 -0.86,-0.984 -0.168,-0.174 -0.347,-0.337 -0.524,-0.502 -0.786,-0.751 -1.671,-1.407 -2.661,-1.96 l 41.885,-68.4 c 1.454,1.85 3.411,3.304 5.834,4.215 z" style="fill:#008dcc;fill-opacity:1;fill-rule:nonzero;stroke:none" id="path86" data-index="17"></path></g><g id="g88" transform="translate(1287.6787,1237.5562)"><path d="m 0,0 -36.498,26.789 c -1.245,-2.081 -3.009,-3.825 -5.285,-5.022 L -6.456,-4.164 26.35,-159.037 c 1.067,-0.075 2.085,-0.217 3.032,-0.465 0.764,0.123 1.551,0.218 2.402,0.218 0.702,0 1.324,-0.123 1.979,-0.196 z" style="fill:#008dcc;fill-opacity:1;fill-rule:nonzero;stroke:none" id="path90" data-index="18"></path></g><g id="g92" transform="translate(1326.6992,1046.7056)"><path d="m 0,0 c -1.957,-1.082 -4.28,-1.758 -7.031,-1.82 l 15.533,-152.199 -3.617,-6.756 c 2.41,-0.943 4.357,-2.436 5.842,-4.294 l 4.621,8.632 0.515,0.967 z" style="fill:#008dcc;fill-opacity:1;fill-rule:nonzero;stroke:none" id="path94" data-index="19"></path></g><g id="g96" transform="translate(1316.8701,858.4531)"><path d="m 0,0 -48.612,-90.786 c 2.427,-5.412 1.95,-12.147 -1.506,-16.844 l 0.965,0.621 L 6.88,-2.357 C 4.68,-2.05 2.8,-1.302 1.151,-0.301 0.749,-0.225 0.383,-0.104 0,0" style="fill:#008dcc;fill-opacity:1;fill-rule:nonzero;stroke:none" id="path98" data-index="20"></path></g><g id="g100" transform="translate(1083.3506,807.2959)"><path d="m 0,0 -41.82,-74.68 c 2.198,-1.499 3.83,-3.548 4.93,-5.882 L 6.668,-2.781 C 4.043,-2.364 1.805,-1.403 0,0" style="fill:#008dcc;fill-opacity:1;fill-rule:nonzero;stroke:none" id="path102" data-index="21"></path></g><g id="g104" transform="translate(1092.7715,804.2422)"><path d="m 0,0 c -0.587,0 -1.1,0.112 -1.653,0.164 v -123.352 c 0.942,0.165 1.909,0.296 2.965,0.296 1.531,0 2.91,-0.233 4.213,-0.567 V 1.001 C 3.886,0.401 2.081,0 0,0" style="fill:#008dcc;fill-opacity:1;fill-rule:nonzero;stroke:none" id="path106" data-index="22"></path></g><g id="g108" transform="translate(1163.1016,925.3301)"><path d="m 0,0 -63.479,-91.689 c 2.249,-1.194 4.03,-2.899 5.32,-4.933 L 6.753,-2.854 C 4.361,-2.457 2.327,-1.569 0.62,-0.341 0.398,-0.243 0.213,-0.107 0,0" style="fill:#008dcc;fill-opacity:1;fill-rule:nonzero;stroke:none" id="path110" data-index="23"></path></g><g id="g112" transform="translate(1182.5146,925.7012)"><path d="m 0,0 c -1.714,-1.517 -3.833,-2.662 -6.442,-3.177 l 67.724,-150.491 c 1.593,1.7 3.663,2.991 6.201,3.707 z" style="fill:#008dcc;fill-opacity:1;fill-rule:nonzero;stroke:none" id="path114" data-index="24"></path></g><g id="g116" transform="translate(1240.8418,767.2539)"><path d="m 0,0 -133.321,51.848 c -0.058,-2.463 -0.615,-4.884 -1.68,-7.05 L -1.07,-7.286 C -1.229,-4.792 -0.875,-2.295 0,0" style="fill: rgb(0, 141, 204); fill-opacity: 1; fill-rule: nonzero; opacity: 1;" id="path118" data-index="25"></path></g><g id="g120" transform="translate(1306.5605,878.3584)"><path d="m 0,0 -120.098,65.196 c 0.996,-2.743 1.292,-5.761 0.876,-8.645 L -0.327,-7.992 C -0.833,-5.337 -0.701,-2.577 0,0" style="fill: rgb(0, 141, 204); fill-opacity: 1; fill-rule: nonzero; stroke: none; opacity: 1;" id="path122" data-index="26"></path></g><g id="g124" transform="translate(1098.2129,1064.7832)"><path d="m 0,0 -49.448,-24.724 c 1.487,-1.905 2.501,-4.14 3.021,-6.512 L 3.404,-6.321 C 1.773,-4.522 0.663,-2.336 0,0" style="fill:#008dcc;fill-opacity:1;fill-rule:nonzero;stroke:none" id="path126" data-index="27"></path></g><g id="g128" transform="translate(1121.6729,1056.4673)"><path d="m 0,0 c -1.818,-1.325 -4.091,-2.181 -6.753,-2.502 l 47.161,-101.064 c 1.948,1.12 4.275,1.824 7.03,1.915 z" style="fill:#008dcc;fill-opacity:1;fill-rule:nonzero;stroke:none" id="path130" data-index="28"></path></g><g id="g132" transform="translate(1044.5518,1016.0605)"><path d="m 0,0 110.812,-72.72 c 0.522,2.411 1.51,4.694 3.065,6.572 L 5.37,5.061 C 4.106,2.958 2.319,1.195 0,0" style="fill:#008dcc;fill-opacity:1;fill-rule:nonzero;stroke:none" id="path134" data-index="29"></path></g><g id="g136" transform="translate(1234.3242,1101.5771)"><path d="M 0,0 53.855,132.975 47.203,135.667 -6.212,3.78 C -3.699,3.02 -1.612,1.718 0,0" style="fill:#008dcc;fill-opacity:1;fill-rule:nonzero;stroke:none" id="path138" data-index="30"></path></g><g id="g140" transform="translate(1206.2012,1095.9727)"><path d="m 0,0 -163.05,31.06 c -0.35,-2.464 -1.273,-4.791 -2.666,-6.801 l 153.165,-29.176 -67.043,-16.09 c 0.807,-2.285 1.079,-4.746 0.912,-7.165 L -0.665,-9.446 C -1.3,-6.293 -1.075,-2.978 0,0" style="fill:#008dcc;fill-opacity:1;fill-rule:nonzero;stroke:none" id="path142" data-index="31"></path></g><g id="g144" transform="translate(1121.4844,1173.4316)"><path d="m 0,0 c -1.573,-1.894 -3.727,-3.316 -6.361,-4.145 l 91.874,-71.46 c 1.106,2.146 2.753,3.963 4.877,5.302 z" style="fill:#008dcc;fill-opacity:1;fill-rule:nonzero;stroke:none" id="path146" data-index="32"></path></g><g id="g148" transform="translate(1093.4336,1179.2388)"><path d="m 0,0 -51.844,-42.123 c 1.169,-2.437 1.75,-5.148 1.703,-7.865 L 4.075,-5.939 C 2.244,-4.304 0.86,-2.272 0,0" style="fill:#008dcc;fill-opacity:1;fill-rule:nonzero;stroke:none" id="path150" data-index="33"></path></g><g id="g152" transform="translate(1298.0938,1061.9248)"><path d="m 0,0 c -0.198,2.497 0.1,5.011 0.937,7.327 l -60.572,23.075 c 0.296,-2.506 0.115,-5.069 -0.641,-7.439 z" style="fill:#008dcc;fill-opacity:1;fill-rule:nonzero;stroke:none" id="path154" data-index="34"></path></g><g id="g156" transform="translate(1302.3086,1051.9761)"><path d="m 0,0 -118.55,-103.728 c 1.611,-1.925 2.678,-4.243 3.248,-6.697 L 6.486,-3.862 C 3.847,-3.121 1.672,-1.779 0,0" style="fill:#008dcc;fill-opacity:1;fill-rule:nonzero;stroke:none" id="path158" data-index="35"></path></g><g id="g160" transform="translate(1220.499,1074.1787)"><path d="m 0,0 c -2.231,0 -4.182,0.436 -5.93,1.12 l -38.265,-121.758 c 1.051,-0.471 1.989,-1.071 2.852,-1.746 1.267,-0.63 2.405,-1.409 3.389,-2.332 L 1.282,0.127 C 0.847,0.096 0.457,0 0,0" style="fill:#008dcc;fill-opacity:1;fill-rule:nonzero;stroke:none" id="path162" data-index="36"></path></g><g id="g164" transform="translate(1165.3828,1353.3892)"><path d="m 0,0 -51.584,-152.551 c 2.605,-0.514 4.751,-1.65 6.509,-3.151 L 6.665,-2.699 C 4.052,-2.299 1.807,-1.375 0,0" style="fill:#008dcc;fill-opacity:1;fill-rule:nonzero;stroke:none" id="path166" data-index="37"></path></g><g id="g168" transform="translate(1046.3672,1279.522)"><path d="m 0,0 -0.001,-0.002 c -0.743,-0.747 -1.585,-1.4 -2.52,-1.966 -0.141,-0.086 -0.278,-0.174 -0.423,-0.255 -1.006,-0.559 -2.102,-1.014 -3.319,-1.324 l 54.577,-81.784 c 1.265,2.061 3.031,3.792 5.32,4.964 z" style="fill:#008dcc;fill-opacity:1;fill-rule:nonzero;stroke:none" id="path170" data-index="38"></path></g><g id="g172" transform="translate(1224.501,1263.1357)"><path d="m 0,0 -100.843,-69.546 c 1.222,-2.233 1.891,-4.757 2.033,-7.316 L 6.423,-4.288 C 3.774,-3.414 1.611,-1.933 0,0" style="fill:#008dcc;fill-opacity:1;fill-rule:nonzero;stroke:none" id="path174" data-index="39"></path></g><g id="g176" transform="translate(1039.2441,1014.5776)"><path d="m 0,0 c -0.598,-0.062 -1.156,-0.179 -1.797,-0.179 -2.25,0 -4.216,0.439 -5.974,1.134 L 46.294,-180.55 c 1.897,0.89 4.119,1.413 6.688,1.413 0.139,0 0.253,-0.036 0.39,-0.039 z" style="fill:#008dcc;fill-opacity:1;fill-rule:nonzero;stroke:none" id="path178" data-index="40"></path></g><g id="g180" transform="translate(1036.4941,1303.0283)"><path d="m 0,0 c -6.926,0 -12.563,-5.636 -12.563,-12.563 0,-6.926 5.637,-12.562 12.563,-12.562 6.927,0 12.563,5.636 12.563,12.562 C 12.563,-5.636 6.927,0 0,0 m 0,-35.893 c -12.863,0 -23.33,10.467 -23.33,23.33 0,12.864 10.467,23.331 23.33,23.331 12.864,0 23.331,-10.467 23.331,-23.331 0,-12.863 -10.467,-23.33 -23.331,-23.33" style="fill:#1d6499;fill-opacity:1;fill-rule:nonzero;stroke:none" id="path182" data-index="41"></path></g><g id="g184" transform="translate(1029.3164,1141.5122)"><path d="m 0,0 c -6.927,0 -12.563,-5.636 -12.563,-12.563 0,-6.926 5.636,-12.562 12.563,-12.562 6.926,0 12.563,5.636 12.563,12.562 C 12.563,-5.636 6.926,0 0,0 m 0,-35.893 c -12.864,0 -23.33,10.467 -23.33,23.33 0,12.864 10.466,23.331 23.33,23.331 12.863,0 23.33,-10.467 23.33,-23.331 0,-12.863 -10.467,-23.33 -23.33,-23.33" style="fill:#1d6499;fill-opacity:1;fill-rule:nonzero;stroke:none" id="path186" data-index="42"></path></g><g id="g188" transform="translate(1036.4941,1041.0132)"><path d="m 0,0 c -6.926,0 -12.563,-5.636 -12.563,-12.563 0,-6.925 5.637,-12.562 12.563,-12.562 6.927,0 12.563,5.637 12.563,12.562 C 12.563,-5.636 6.927,0 0,0 m 0,-35.893 c -12.863,0 -23.33,10.467 -23.33,23.33 0,12.864 10.467,23.331 23.33,23.331 12.864,0 23.331,-10.467 23.331,-23.331 0,-12.863 -10.467,-23.33 -23.331,-23.33" style="fill:#1d6499;fill-opacity:1;fill-rule:nonzero;stroke:none" id="path190" data-index="43"></path></g><g id="g192" transform="translate(1111.8691,1080.4951)"><path d="m 0,0 c -6.927,0 -12.563,-5.637 -12.563,-12.563 0,-6.926 5.636,-12.562 12.563,-12.562 6.926,0 12.563,5.636 12.563,12.562 C 12.563,-5.637 6.926,0 0,0 m 0,-35.893 c -12.864,0 -23.33,10.467 -23.33,23.33 0,12.864 10.466,23.331 23.33,23.331 12.863,0 23.33,-10.467 23.33,-23.331 0,-12.863 -10.467,-23.33 -23.33,-23.33" style="fill:#1d6499;fill-opacity:1;fill-rule:nonzero;stroke:none" id="path194" data-index="44"></path></g><g id="g196" transform="translate(1223.1357,1102.0303)"><path d="m 0,0 c -6.927,0 -12.563,-5.636 -12.563,-12.563 0,-6.925 5.636,-12.562 12.563,-12.562 6.926,0 12.563,5.637 12.563,12.562 C 12.563,-5.636 6.926,0 0,0 m 0,-35.893 c -12.864,0 -23.33,10.467 -23.33,23.33 0,12.865 10.466,23.331 23.33,23.331 12.863,0 23.33,-10.466 23.33,-23.331 0,-12.863 -10.467,-23.33 -23.33,-23.33" style="fill:#1d6499;fill-opacity:1;fill-rule:nonzero;stroke:none" id="path198" data-index="45"></path></g><g id="g200" transform="translate(1316.4561,1073.3164)"><path d="m 0,0 c -6.927,0 -12.563,-5.636 -12.563,-12.563 0,-6.925 5.636,-12.562 12.563,-12.562 6.926,0 12.563,5.637 12.563,12.562 C 12.563,-5.636 6.926,0 0,0 m 0,-35.893 c -12.864,0 -23.33,10.467 -23.33,23.33 0,12.864 10.466,23.331 23.33,23.331 12.863,0 23.33,-10.467 23.33,-23.331 0,-12.863 -10.467,-23.33 -23.33,-23.33" style="fill:#1d6499;fill-opacity:1;fill-rule:nonzero;stroke:none" id="path202" data-index="46"></path></g><g id="g204" transform="translate(1323.6348,883.0859)"><path d="m 0,0 c -6.927,0 -12.563,-5.636 -12.563,-12.563 0,-6.925 5.636,-12.561 12.563,-12.561 6.926,0 12.562,5.636 12.562,12.561 C 12.562,-5.636 6.926,0 0,0 m 0,-35.893 c -12.864,0 -23.33,10.467 -23.33,23.33 0,12.865 10.466,23.332 23.33,23.332 12.863,0 23.33,-10.467 23.33,-23.332 0,-12.863 -10.467,-23.33 -23.33,-23.33" style="fill:#1d6499;fill-opacity:1;fill-rule:nonzero;stroke:none" id="path206" data-index="47"></path></g><g id="g208" transform="translate(1255.4385,771.8193)"><path d="m 0,0 c -6.926,0 -12.563,-5.636 -12.563,-12.563 0,-6.925 5.637,-12.561 12.563,-12.561 6.927,0 12.563,5.636 12.563,12.561 C 12.563,-5.636 6.927,0 0,0 m 0,-35.894 c -12.863,0 -23.33,10.468 -23.33,23.331 0,12.865 10.467,23.331 23.33,23.331 12.864,0 23.33,-10.466 23.33,-23.331 0,-12.863 -10.466,-23.331 -23.33,-23.331" style="fill: rgb(29, 100, 153); fill-opacity: 1; fill-rule: nonzero; opacity: 1;" id="path210" data-index="48"></path></g><g id="g212" transform="translate(1172.8857,951.2822)"><path d="m 0,0 c -6.926,0 -12.563,-5.637 -12.563,-12.563 0,-6.925 5.637,-12.562 12.563,-12.562 6.927,0 12.563,5.637 12.563,12.562 C 12.563,-5.637 6.927,0 0,0 m 0,-35.893 c -12.863,0 -23.33,10.466 -23.33,23.33 0,12.864 10.467,23.331 23.33,23.331 12.864,0 23.33,-10.467 23.33,-23.331 0,-12.864 -10.466,-23.33 -23.33,-23.33" style="fill:#1d6499;fill-opacity:1;fill-rule:nonzero;stroke:none" id="path214" data-index="49"></path></g><g id="g216" transform="translate(1093.9229,832.8369)"><path d="m 0,0 c -6.927,0 -12.563,-5.637 -12.563,-12.563 0,-6.925 5.636,-12.562 12.563,-12.562 6.926,0 12.563,5.637 12.563,12.562 C 12.563,-5.637 6.926,0 0,0 m 0,-35.893 c -12.864,0 -23.33,10.466 -23.33,23.33 0,12.865 10.466,23.331 23.33,23.331 12.863,0 23.33,-10.466 23.33,-23.331 0,-12.864 -10.467,-23.33 -23.33,-23.33" style="fill:#1d6499;fill-opacity:1;fill-rule:nonzero;stroke:none" id="path218" data-index="50"></path></g><g id="g220" transform="translate(1093.9229,678.499)"><path d="m 0,0 c -6.927,0 -12.563,-5.636 -12.563,-12.563 0,-6.925 5.636,-12.562 12.563,-12.562 6.926,0 12.563,5.637 12.563,12.562 C 12.563,-5.636 6.926,0 0,0 m 0,-35.893 c -12.864,0 -23.33,10.467 -23.33,23.33 0,12.865 10.466,23.331 23.33,23.331 12.863,0 23.33,-10.466 23.33,-23.331 0,-12.863 -10.467,-23.33 -23.33,-23.33" style="fill:#1d6499;fill-opacity:1;fill-rule:nonzero;stroke:none" id="path222" data-index="51"></path></g><g id="g224" transform="translate(1032.9053,732.3379)"><path d="m 0,0 c -6.926,0 -12.563,-5.637 -12.563,-12.563 0,-6.925 5.637,-12.562 12.563,-12.562 6.926,0 12.563,5.637 12.563,12.562 C 12.563,-5.637 6.926,0 0,0 m 0,-35.893 c -12.863,0 -23.33,10.467 -23.33,23.33 0,12.865 10.467,23.331 23.33,23.331 12.864,0 23.33,-10.466 23.33,-23.331 0,-12.863 -10.466,-23.33 -23.33,-23.33" style="fill:#1d6499;fill-opacity:1;fill-rule:nonzero;stroke:none" id="path226" data-index="52"></path></g><g id="g228" transform="translate(1172.8857,1378.4023)"><path d="m 0,0 c -6.926,0 -12.563,-5.636 -12.563,-12.563 0,-6.925 5.637,-12.562 12.563,-12.562 6.927,0 12.563,5.637 12.563,12.562 C 12.563,-5.636 6.927,0 0,0 m 0,-35.893 c -12.863,0 -23.33,10.467 -23.33,23.33 0,12.865 10.467,23.331 23.33,23.331 12.864,0 23.33,-10.466 23.33,-23.331 0,-12.863 -10.466,-23.33 -23.33,-23.33" style="fill:#1d6499;fill-opacity:1;fill-rule:nonzero;stroke:none" id="path230" data-index="53"></path></g><g id="g232" transform="translate(1237.4922,1285.082)"><path d="m 0,0 c -6.926,0 -12.563,-5.636 -12.563,-12.563 0,-6.926 5.637,-12.562 12.563,-12.562 6.927,0 12.563,5.636 12.563,12.562 C 12.563,-5.636 6.927,0 0,0 m 0,-35.893 c -12.863,0 -23.33,10.467 -23.33,23.33 0,12.864 10.467,23.331 23.33,23.331 12.864,0 23.33,-10.467 23.33,-23.331 0,-12.863 -10.466,-23.33 -23.33,-23.33" style="fill:#1d6499;fill-opacity:1;fill-rule:nonzero;stroke:none" id="path234" data-index="54"></path></g><g id="g236" transform="translate(1108.2793,1195.3506)"><path d="m 0,0 c -6.926,0 -12.563,-5.636 -12.563,-12.562 0,-6.926 5.637,-12.563 12.563,-12.563 6.927,0 12.563,5.637 12.563,12.563 C 12.563,-5.636 6.927,0 0,0 m 0,-35.892 c -12.863,0 -23.33,10.466 -23.33,23.33 0,12.864 10.467,23.33 23.33,23.33 12.864,0 23.33,-10.466 23.33,-23.33 0,-12.864 -10.466,-23.33 -23.33,-23.33" style="fill:#1d6499;fill-opacity:1;fill-rule:nonzero;stroke:none" id="path238" data-index="55"></path></g><g id="g240" transform="translate(1058.0303,1403.5273)"><path d="m 0,0 c -6.927,0 -12.563,-5.636 -12.563,-12.563 0,-6.926 5.636,-12.562 12.563,-12.562 6.926,0 12.563,5.636 12.563,12.562 C 12.563,-5.636 6.926,0 0,0 m 0,-35.893 c -12.864,0 -23.33,10.467 -23.33,23.33 0,12.864 10.466,23.331 23.33,23.331 12.863,0 23.33,-10.467 23.33,-23.331 0,-12.863 -10.467,-23.33 -23.33,-23.33" style="fill:#1d6499;fill-opacity:1;fill-rule:nonzero;stroke:none" id="path242" data-index="56"></path></g><g id="g244" transform="translate(963.4224,704.6318)"><path d="m 0,0 -42.287,-33.413 c -0.723,2.348 -2.002,4.461 -3.759,6.177 L -6.536,3.983 C -4.897,2.137 -2.704,0.748 0,0" style="fill:#008dcc;fill-opacity:1;fill-rule:nonzero;stroke:none" id="path246" data-index="57"></path></g><g id="g248" transform="translate(746.1738,745.2051)"><path d="m 0,0 c 2.9,0 5.344,0.705 7.426,1.816 l 83.762,-53.993 56.02,-20.344 c -1.003,-2.208 -1.568,-4.62 -1.594,-7.056 L 88.355,-58.784 -3.547,0.357 C -2.446,0.126 -1.264,0 0,0" style="fill:#008dcc;fill-opacity:1;fill-rule:nonzero;stroke:none" id="path250" data-index="58"></path></g><g id="g252" transform="translate(963.7568,1014.3989)"><path d="m 0,0 c 2.729,0 5.064,0.612 7.069,1.606 l 0.117,-281.069 c -0.827,0.122 -1.647,0.254 -2.557,0.254 -1.697,0 -3.203,-0.291 -4.621,-0.699 L -0.109,0.01 C -0.07,0.01 -0.039,0 0,0" style="fill:#008dcc;fill-opacity:1;fill-rule:nonzero;stroke:none" id="path254" data-index="59"></path></g><g id="g256" transform="translate(970.7847,1114.4663)"><path d="m 0,0 0.029,-70.191 c -1.857,0.838 -4.025,1.322 -6.512,1.322 -0.237,0 -0.435,-0.058 -0.666,-0.066 L -7.179,2.65 C -5.28,1.212 -2.852,0.307 0,0" style="fill:#008dcc;fill-opacity:1;fill-rule:nonzero;stroke:none" id="path258" data-index="60"></path></g><g id="g260" transform="translate(968.2305,1275.7197)"><path d="m 0,0 c 0.883,0.152 1.696,0.397 2.485,0.677 h 0.002 l 0.055,-131.161 c -2.863,-0.401 -5.267,-1.449 -7.177,-2.994 L -4.691,-0.127 c 0.568,-0.055 1.096,-0.169 1.702,-0.169 1.062,0 2.051,0.113 2.989,0.296" style="fill:#008dcc;fill-opacity:1;fill-rule:nonzero;stroke:none" id="path262" data-index="61"></path></g><g id="g264" transform="translate(946.9458,1377.0391)"><path d="m 0,0 c 0.797,0.122 1.62,0.208 2.343,0.435 0.053,0.016 0.104,0.034 0.157,0.05 1.115,0.364 2.14,0.83 3.072,1.409 h 0.001 l 18.174,-43.114 0.012,-30.001 h -0.001 c -0.676,0.215 -1.368,0.403 -2.115,0.525 -0.881,0.167 -1.803,0.279 -2.802,0.279 -0.802,0 -1.521,-0.128 -2.26,-0.224 l -0.013,27.97 -17.884,42.426 c 0.404,0.03 0.742,0.156 1.129,0.21 C -0.125,-0.022 -0.062,-0.013 0,0" style="fill:#008dcc;fill-opacity:1;fill-rule:nonzero;stroke:none" id="path266" data-index="62"></path></g><g id="g268" transform="translate(879.6895,1373.958)"><path d="m 0,0 49.084,20.69 c -0.383,-2.539 -0.222,-5.149 0.484,-7.584 L 1.451,-7.179 -37.897,-7.194 c -0.028,1.188 -0.187,2.357 -0.449,3.506 -0.028,0.121 -0.053,0.238 -0.083,0.358 -0.29,1.15 -0.674,2.262 -1.201,3.31 z" style="fill:#008dcc;fill-opacity:1;fill-rule:nonzero;stroke:none" id="path270" data-index="63"></path></g><g id="g272" transform="translate(813.7783,1357.5127)"><path d="m 0,0 c 0.346,-0.617 0.751,-1.194 1.19,-1.748 0.267,-0.345 0.56,-0.665 0.859,-0.984 0.168,-0.174 0.347,-0.337 0.524,-0.502 0.787,-0.751 1.671,-1.407 2.662,-1.96 l -41.886,-68.4 c -1.454,1.85 -3.41,3.304 -5.834,4.215 z" style="fill:#008dcc;fill-opacity:1;fill-rule:nonzero;stroke:none" id="path274" data-index="64"></path></g><g id="g276" transform="translate(713.5254,1237.5562)"><path d="m 0,0 36.499,26.789 c 1.244,-2.081 3.008,-3.825 5.284,-5.022 L 6.457,-4.164 -26.35,-159.037 c -1.067,-0.075 -2.085,-0.217 -3.032,-0.465 -0.764,0.123 -1.551,0.218 -2.403,0.218 -0.701,0 -1.323,-0.123 -1.978,-0.196 z" style="fill:#008dcc;fill-opacity:1;fill-rule:nonzero;stroke:none" id="path278" data-index="65"></path></g><g id="g280" transform="translate(674.5054,1046.7056)"><path d="m 0,0 c 1.957,-1.082 4.28,-1.758 7.031,-1.82 l -15.533,-152.199 3.617,-6.756 c -2.41,-0.943 -4.358,-2.436 -5.842,-4.294 l -4.621,8.632 -0.515,0.967 z" style="fill:#008dcc;fill-opacity:1;fill-rule:nonzero;stroke:none" id="path282" data-index="66"></path></g><g id="g284" transform="translate(684.334,858.4531)"><path d="m 0,0 48.612,-90.786 c -2.428,-5.412 -1.949,-12.147 1.506,-16.844 l -0.965,0.621 L -6.88,-2.357 c 2.2,0.307 4.08,1.055 5.729,2.056 C -0.749,-0.225 -0.383,-0.104 0,0" style="fill:#008dcc;fill-opacity:1;fill-rule:nonzero;stroke:none" id="path286" data-index="67"></path></g><g id="g288" transform="translate(917.854,807.2959)"><path d="m 0,0 41.82,-74.68 c -2.198,-1.499 -3.83,-3.548 -4.93,-5.882 L -6.668,-2.781 C -4.043,-2.364 -1.805,-1.403 0,0" style="fill:#008dcc;fill-opacity:1;fill-rule:nonzero;stroke:none" id="path290" data-index="68"></path></g><g id="g292" transform="translate(908.4326,804.2422)"><path d="m 0,0 c 0.587,0 1.1,0.112 1.653,0.164 v -123.352 c -0.942,0.165 -1.909,0.296 -2.965,0.296 -1.531,0 -2.909,-0.233 -4.213,-0.567 V 1.001 C -3.886,0.401 -2.081,0 0,0" style="fill:#008dcc;fill-opacity:1;fill-rule:nonzero;stroke:none" id="path294" data-index="69"></path></g><g id="g296" transform="translate(838.1025,925.3301)"><path d="m 0,0 63.478,-91.689 c -2.248,-1.194 -4.028,-2.899 -5.319,-4.933 L -6.753,-2.854 c 2.392,0.397 4.426,1.285 6.133,2.513 C -0.399,-0.243 -0.213,-0.107 0,0" style="fill:#008dcc;fill-opacity:1;fill-rule:nonzero;stroke:none" id="path298" data-index="70"></path></g><g id="g300" transform="translate(818.6895,925.7012)"><path d="m 0,0 c 1.714,-1.517 3.833,-2.662 6.443,-3.177 l -67.725,-150.491 c -1.593,1.7 -3.663,2.991 -6.201,3.707 z" style="fill:#008dcc;fill-opacity:1;fill-rule:nonzero;stroke:none" id="path302" data-index="71"></path></g><g id="g304" transform="translate(760.3628,767.2539)"><path d="m 0,0 133.321,51.848 c 0.057,-2.463 0.614,-4.884 1.68,-7.05 L 1.07,-7.286 C 1.229,-4.792 0.875,-2.295 0,0" style="fill:#008dcc;fill-opacity:1;fill-rule:nonzero;stroke:none" id="path306" data-index="72"></path></g><g id="g308" transform="translate(694.644,878.3584)"><path d="m 0,0 120.097,65.196 c -0.997,-2.743 -1.292,-5.761 -0.875,-8.645 L 0.327,-7.992 C 0.833,-5.337 0.701,-2.577 0,0" style="fill:#008dcc;fill-opacity:1;fill-rule:nonzero;stroke:none" id="path310" data-index="73"></path></g><g id="g312" transform="translate(902.9912,1064.7832)"><path d="m 0,0 49.449,-24.724 c -1.488,-1.905 -2.501,-4.14 -3.023,-6.512 L -3.405,-6.321 C -1.774,-4.522 -0.663,-2.336 0,0" style="fill:#008dcc;fill-opacity:1;fill-rule:nonzero;stroke:none" id="path314" data-index="74"></path></g><g id="g316" transform="translate(879.5317,1056.4673)"><path d="m 0,0 c 1.818,-1.325 4.09,-2.181 6.753,-2.502 l -47.161,-101.064 c -1.948,1.12 -4.275,1.824 -7.031,1.915 z" style="fill:#008dcc;fill-opacity:1;fill-rule:nonzero;stroke:none" id="path318" data-index="75"></path></g><g id="g320" transform="translate(956.6523,1016.0605)"><path d="m 0,0 -110.811,-72.72 c -0.523,2.411 -1.511,4.694 -3.066,6.572 L -5.37,5.061 C -4.106,2.958 -2.319,1.195 0,0" style="fill:#008dcc;fill-opacity:1;fill-rule:nonzero;stroke:none" id="path322" data-index="76"></path></g><g id="g324" transform="translate(766.8804,1101.5771)"><path d="m 0,0 -53.856,132.975 6.652,2.692 L 6.211,3.78 C 3.699,3.02 1.611,1.718 0,0" style="fill:#008dcc;fill-opacity:1;fill-rule:nonzero;stroke:none" id="path326" data-index="77"></path></g><g id="g328" transform="translate(795.0029,1095.9727)"><path d="m 0,0 163.05,31.06 c 0.35,-2.464 1.274,-4.791 2.666,-6.801 L 12.551,-4.917 79.593,-21.007 c -0.806,-2.285 -1.078,-4.746 -0.911,-7.165 L 0.665,-9.446 C 1.3,-6.293 1.075,-2.978 0,0" style="fill:#008dcc;fill-opacity:1;fill-rule:nonzero;stroke:none" id="path330" data-index="78"></path></g><g id="g332" transform="translate(879.7197,1173.4316)"><path d="m 0,0 c 1.573,-1.894 3.727,-3.316 6.361,-4.145 l -91.874,-71.46 c -1.106,2.146 -2.752,3.963 -4.877,5.302 z" style="fill:#008dcc;fill-opacity:1;fill-rule:nonzero;stroke:none" id="path334" data-index="79"></path></g><g id="g336" transform="translate(907.77,1179.2388)"><path d="m 0,0 51.844,-42.123 c -1.169,-2.437 -1.75,-5.148 -1.702,-7.865 L -4.074,-5.939 C -2.244,-4.304 -0.86,-2.272 0,0" style="fill:#008dcc;fill-opacity:1;fill-rule:nonzero;stroke:none" id="path338" data-index="80"></path></g><g id="g340" transform="translate(703.1104,1061.9248)"><path d="M 0,0 C 0.199,2.497 -0.1,5.011 -0.938,7.327 L 59.635,30.402 C 59.339,27.896 59.52,25.333 60.277,22.963 Z" style="fill:#008dcc;fill-opacity:1;fill-rule:nonzero;stroke:none" id="path342" data-index="81"></path></g><g id="g344" transform="translate(698.896,1051.9761)"><path d="m 0,0 118.549,-103.728 c -1.61,-1.925 -2.677,-4.243 -3.248,-6.697 L -6.486,-3.862 C -3.847,-3.121 -1.672,-1.779 0,0" style="fill:#008dcc;fill-opacity:1;fill-rule:nonzero;stroke:none" id="path346" data-index="82"></path></g><g id="g348" transform="translate(780.7051,1074.1787)"><path d="m 0,0 c 2.231,0 4.182,0.436 5.93,1.12 l 38.266,-121.758 c -1.052,-0.471 -1.989,-1.071 -2.853,-1.746 -1.267,-0.63 -2.405,-1.409 -3.388,-2.332 L -1.282,0.127 C -0.847,0.096 -0.457,0 0,0" style="fill:#008dcc;fill-opacity:1;fill-rule:nonzero;stroke:none" id="path350" data-index="83"></path></g><g id="g352" transform="translate(835.8208,1353.3892)"><path d="m 0,0 51.585,-152.551 c -2.607,-0.514 -4.751,-1.65 -6.509,-3.151 L -6.664,-2.699 C -4.051,-2.299 -1.806,-1.375 0,0" style="fill:#008dcc;fill-opacity:1;fill-rule:nonzero;stroke:none" id="path354" data-index="84"></path></g><g id="g356" transform="translate(954.8364,1279.522)"><path d="m 0,0 0.002,-0.002 c 0.743,-0.747 1.584,-1.4 2.519,-1.966 0.141,-0.086 0.279,-0.174 0.424,-0.255 1.006,-0.559 2.102,-1.014 3.318,-1.324 l -54.577,-81.784 c -1.264,2.061 -3.03,3.792 -5.319,4.964 z" style="fill:#008dcc;fill-opacity:1;fill-rule:nonzero;stroke:none" id="path358" data-index="85"></path></g><g id="g360" transform="translate(776.7036,1263.1357)"><path d="m 0,0 100.843,-69.546 c -1.222,-2.233 -1.891,-4.757 -2.034,-7.316 L -6.424,-4.288 C -3.776,-3.414 -1.611,-1.933 0,0" style="fill:#008dcc;fill-opacity:1;fill-rule:nonzero;stroke:none" id="path362" data-index="86"></path></g><g id="g364" transform="translate(961.96,1014.5776)"><path d="m 0,0 c 0.598,-0.062 1.157,-0.179 1.797,-0.179 2.249,0 4.216,0.439 5.974,1.134 L -46.294,-180.55 c -1.897,0.89 -4.119,1.413 -6.689,1.413 -0.138,0 -0.252,-0.036 -0.389,-0.039 z" style="fill:#008dcc;fill-opacity:1;fill-rule:nonzero;stroke:none" id="path366" data-index="87"></path></g><g id="g368" transform="translate(952.1475,1290.4658)"><path d="m 0,0 c 0,-6.926 5.636,-12.563 12.562,-12.563 6.926,0 12.563,5.637 12.563,12.563 0,6.926 -5.637,12.563 -12.563,12.563 C 5.636,12.563 0,6.926 0,0 m -10.768,0 c 0,12.864 10.466,23.33 23.33,23.33 12.864,0 23.33,-10.466 23.33,-23.33 0,-12.864 -10.466,-23.33 -23.33,-23.33 -12.864,0 -23.33,10.466 -23.33,23.33" style="fill:#1d6499;fill-opacity:1;fill-rule:nonzero;stroke:none" id="path370" data-index="88"></path></g><g id="g372" transform="translate(959.3257,1128.9497)"><path d="m 0,0 c 0,-6.926 5.636,-12.563 12.563,-12.563 6.926,0 12.562,5.637 12.562,12.563 0,6.926 -5.636,12.563 -12.562,12.563 C 5.636,12.563 0,6.926 0,0 m -10.768,0 c 0,12.864 10.467,23.33 23.331,23.33 12.863,0 23.33,-10.466 23.33,-23.33 0,-12.864 -10.467,-23.33 -23.33,-23.33 -12.864,0 -23.331,10.466 -23.331,23.33" style="fill:#1d6499;fill-opacity:1;fill-rule:nonzero;stroke:none" id="path374" data-index="89"></path></g><g id="g376" transform="translate(952.1475,1028.4507)"><path d="m 0,0 c 0,-6.926 5.636,-12.563 12.562,-12.563 6.926,0 12.563,5.637 12.563,12.563 0,6.926 -5.637,12.563 -12.563,12.563 C 5.636,12.563 0,6.926 0,0 m -10.768,0 c 0,12.864 10.466,23.33 23.33,23.33 12.864,0 23.33,-10.466 23.33,-23.33 0,-12.864 -10.466,-23.33 -23.33,-23.33 -12.864,0 -23.33,10.466 -23.33,23.33" style="fill:#1d6499;fill-opacity:1;fill-rule:nonzero;stroke:none" id="path378" data-index="90"></path></g><g id="g380" transform="translate(876.7729,1067.9326)"><path d="m 0,0 c 0,-6.926 5.636,-12.563 12.563,-12.563 6.926,0 12.562,5.637 12.562,12.563 0,6.926 -5.636,12.563 -12.562,12.563 C 5.636,12.563 0,6.926 0,0 m -10.768,0 c 0,12.864 10.467,23.33 23.331,23.33 12.863,0 23.33,-10.466 23.33,-23.33 0,-12.864 -10.467,-23.33 -23.33,-23.33 -12.864,0 -23.331,10.466 -23.331,23.33" style="fill:#1d6499;fill-opacity:1;fill-rule:nonzero;stroke:none" id="path382" data-index="91"></path></g><g id="g384" transform="translate(765.5063,1089.4678)"><path d="m 0,0 c 0,-6.926 5.636,-12.562 12.563,-12.562 6.926,0 12.562,5.636 12.562,12.562 0,6.926 -5.636,12.563 -12.562,12.563 C 5.636,12.563 0,6.926 0,0 m -10.768,0 c 0,12.864 10.467,23.331 23.331,23.331 12.863,0 23.33,-10.467 23.33,-23.331 0,-12.864 -10.467,-23.33 -23.33,-23.33 -12.864,0 -23.331,10.466 -23.331,23.33" style="fill:#1d6499;fill-opacity:1;fill-rule:nonzero;stroke:none" id="path386" data-index="92"></path></g><g id="g388" transform="translate(672.186,1060.7539)"><path d="m 0,0 c 0,-6.926 5.636,-12.562 12.563,-12.562 6.925,0 12.562,5.636 12.562,12.562 0,6.926 -5.637,12.563 -12.562,12.563 C 5.636,12.563 0,6.926 0,0 m -10.768,0 c 0,12.864 10.467,23.33 23.331,23.33 12.863,0 23.33,-10.466 23.33,-23.33 0,-12.864 -10.467,-23.33 -23.33,-23.33 -12.864,0 -23.331,10.466 -23.331,23.33" style="fill:#1d6499;fill-opacity:1;fill-rule:nonzero;stroke:none" id="path390" data-index="93"></path></g><g id="g392" transform="translate(665.0073,870.5234)"><path d="m 0,0 c 0,-6.926 5.636,-12.563 12.563,-12.563 6.926,0 12.562,5.637 12.562,12.563 0,6.927 -5.636,12.563 -12.562,12.563 C 5.636,12.563 0,6.927 0,0 m -10.768,0 c 0,12.864 10.467,23.331 23.331,23.331 12.863,0 23.33,-10.467 23.33,-23.331 0,-12.863 -10.467,-23.33 -23.33,-23.33 -12.864,0 -23.331,10.467 -23.331,23.33" style="fill:#1d6499;fill-opacity:1;fill-rule:nonzero;stroke:none" id="path394" data-index="94"></path></g><g id="g396" transform="translate(733.2031,759.2568)"><path d="m 0,0 c 0,-6.926 5.636,-12.563 12.563,-12.563 6.926,0 12.562,5.637 12.562,12.563 0,6.927 -5.636,12.563 -12.562,12.563 C 5.636,12.563 0,6.927 0,0 m -10.768,0 c 0,12.864 10.467,23.33 23.331,23.33 12.863,0 23.33,-10.466 23.33,-23.33 0,-12.863 -10.467,-23.33 -23.33,-23.33 -12.864,0 -23.331,10.467 -23.331,23.33" style="fill:#1d6499;fill-opacity:1;fill-rule:nonzero;stroke:none" id="path398" data-index="95"></path></g><g id="g400" transform="translate(815.7559,938.7197)"><path d="m 0,0 c 0,-6.926 5.636,-12.563 12.563,-12.563 6.925,0 12.562,5.637 12.562,12.563 0,6.926 -5.637,12.563 -12.562,12.563 C 5.636,12.563 0,6.926 0,0 m -10.768,0 c 0,12.863 10.467,23.33 23.331,23.33 12.863,0 23.33,-10.467 23.33,-23.33 0,-12.864 -10.467,-23.33 -23.33,-23.33 -12.864,0 -23.331,10.466 -23.331,23.33" style="fill:#1d6499;fill-opacity:1;fill-rule:nonzero;stroke:none" id="path402" data-index="96"></path></g><g id="g404" transform="translate(894.7192,820.2744)"><path d="m 0,0 c 0,-6.926 5.636,-12.563 12.563,-12.563 6.926,0 12.562,5.637 12.562,12.563 0,6.926 -5.636,12.563 -12.562,12.563 C 5.636,12.563 0,6.926 0,0 m -10.768,0 c 0,12.864 10.467,23.33 23.331,23.33 12.863,0 23.33,-10.466 23.33,-23.33 0,-12.864 -10.467,-23.33 -23.33,-23.33 -12.864,0 -23.331,10.466 -23.331,23.33" style="fill:#1d6499;fill-opacity:1;fill-rule:nonzero;stroke:none" id="path406" data-index="97"></path></g><g id="g408" transform="translate(894.7192,665.9365)"><path d="m 0,0 c 0,-6.926 5.636,-12.563 12.563,-12.563 6.926,0 12.562,5.637 12.562,12.563 0,6.927 -5.636,12.563 -12.562,12.563 C 5.636,12.563 0,6.927 0,0 m -10.768,0 c 0,12.864 10.467,23.33 23.331,23.33 12.863,0 23.33,-10.466 23.33,-23.33 0,-12.863 -10.467,-23.33 -23.33,-23.33 -12.864,0 -23.331,10.467 -23.331,23.33" style="fill:#1d6499;fill-opacity:1;fill-rule:nonzero;stroke:none" id="path410" data-index="98"></path></g><g id="g412" transform="translate(955.7363,719.7754)"><path d="m 0,0 c 0,-6.926 5.636,-12.563 12.563,-12.563 6.926,0 12.562,5.637 12.562,12.563 0,6.926 -5.636,12.563 -12.562,12.563 C 5.636,12.563 0,6.926 0,0 m -10.768,0 c 0,12.864 10.467,23.33 23.331,23.33 12.863,0 23.33,-10.466 23.33,-23.33 0,-12.863 -10.467,-23.33 -23.33,-23.33 -12.864,0 -23.331,10.467 -23.331,23.33" style="fill:#1d6499;fill-opacity:1;fill-rule:nonzero;stroke:none" id="path414" data-index="99"></path></g><g id="g416" transform="translate(815.7559,1365.8398)"><path d="m 0,0 c 0,-6.926 5.636,-12.562 12.563,-12.562 6.925,0 12.562,5.636 12.562,12.562 0,6.926 -5.637,12.563 -12.562,12.563 C 5.636,12.563 0,6.926 0,0 m -10.768,0 c 0,12.864 10.467,23.33 23.331,23.33 12.863,0 23.33,-10.466 23.33,-23.33 0,-12.864 -10.467,-23.33 -23.33,-23.33 -12.864,0 -23.331,10.466 -23.331,23.33" style="fill:#1d6499;fill-opacity:1;fill-rule:nonzero;stroke:none" id="path418" data-index="100"></path></g><g id="g420" transform="translate(751.1494,1272.5195)"><path d="m 0,0 c 0,-6.926 5.636,-12.563 12.563,-12.563 6.925,0 12.562,5.637 12.562,12.563 0,6.926 -5.637,12.563 -12.562,12.563 C 5.636,12.563 0,6.926 0,0 m -10.768,0 c 0,12.864 10.467,23.33 23.331,23.33 12.863,0 23.33,-10.466 23.33,-23.33 0,-12.864 -10.467,-23.33 -23.33,-23.33 -12.864,0 -23.331,10.466 -23.331,23.33" style="fill:#1d6499;fill-opacity:1;fill-rule:nonzero;stroke:none" id="path422" data-index="101"></path></g><g id="g424" transform="translate(880.3623,1182.7886)"><path d="m 0,0 c 0,-6.926 5.636,-12.563 12.563,-12.563 6.925,0 12.562,5.637 12.562,12.563 0,6.926 -5.637,12.562 -12.562,12.562 C 5.636,12.562 0,6.926 0,0 m -10.768,0 c 0,12.864 10.467,23.33 23.331,23.33 12.863,0 23.33,-10.466 23.33,-23.33 0,-12.864 -10.467,-23.33 -23.33,-23.33 -12.864,0 -23.331,10.466 -23.331,23.33" style="fill:#1d6499;fill-opacity:1;fill-rule:nonzero;stroke:none" id="path426" data-index="102"></path></g><g id="g428" transform="translate(930.6118,1390.9648)"><path d="m 0,0 c 0,-6.926 5.636,-12.563 12.563,-12.563 6.925,0 12.562,5.637 12.562,12.563 0,6.926 -5.637,12.563 -12.562,12.563 C 5.636,12.563 0,6.926 0,0 m -10.768,0 c 0,12.864 10.467,23.33 23.331,23.33 12.863,0 23.33,-10.466 23.33,-23.33 0,-12.864 -10.467,-23.33 -23.33,-23.33 -12.864,0 -23.331,10.466 -23.331,23.33" style="fill:#1d6499;fill-opacity:1;fill-rule:nonzero;stroke:none" id="path430" data-index="103"></path></g></g></g><text xml:space="preserve" transform="matrix(0.75000002,0,0,-0.75000002,0,2000.0001)" id="text14787" style="font-size:24px;line-height:1;font-family:Arial;-inkscape-font-specification:Arial;text-decoration:none;text-decoration-line:none;text-decoration-color:#000000;white-space:pre;shape-inside:url(#rect14789);fill:#000000;stroke:#000000;stroke-width:0;stroke-linecap:butt;stroke-linejoin:miter;stroke-opacity:1;stop-color:#000000"></text><text xml:space="preserve" style="font-size:72px;line-height:1;font-family:Arial;-inkscape-font-specification:Arial;text-decoration:none;text-decoration-line:none;text-decoration-color:#000000;fill:#1d6499;fill-opacity:1;stroke:#000000;stroke-width:0;stroke-linecap:butt;stroke-linejoin:miter;stroke-opacity:1;stop-color:#000000" id="text34420" inkscape:transform-center-x="-4.4041302" inkscape:transform-center-y="-439.67748" transform="matrix(0.40272241,0.91532216,0.91532216,-0.40272241,-290.28934,444.86567)"><textPath xlink:href="#path41168" id="textPath41254"><tspan style="font-weight:bold;font-size:72px;fill:#1d6499;fill-opacity:1;stroke-width:0" id="tspan34428">International Interdisciplinary Computational Cognitive Science Summer School</tspan></textPath></text><path style="font-variation-settings:normal;opacity:0.990586;vector-effect:none;fill:none;fill-opacity:0.334516;fill-rule:evenodd;stroke:none;stroke-width:2.20177;stroke-linecap:butt;stroke-linejoin:miter;stroke-miterlimit:4;stroke-dasharray:none;stroke-dashoffset:0;stroke-opacity:1;-inkscape-stroke:none;stop-color:#000000;stop-opacity:1" id="path41168" sodipodi:type="arc" sodipodi:cx="469.05844" sodipodi:cy="1328.7379" sodipodi:rx="627.1676" sodipodi:ry="627.1676" sodipodi:start="4.1249984" sodipodi:end="4.1235498" sodipodi:open="true" sodipodi:arc-type="arc" d="M 121.4879,806.6901 A 627.1676,627.1676 0 0 1 990.98035,980.97833 627.1676,627.1676 0 0 1 817.00702,1850.5338 627.1676,627.1676 0 0 1 -52.611441,1676.8754 627.1676,627.1676 0 0 1 120.73201,807.19415" transform="rotate(-26.566043)" data-index="104"></path></g></svg>